<?xml version="1.0" encoding="utf-8"?>
<!-- Generator: Adobe Illustrator 24.1.0, SVG Export Plug-In . SVG Version: 6.00 Build 0)  -->
<svg version="1.1" xmlns="http://www.w3.org/2000/svg" xmlns:xlink="http://www.w3.org/1999/xlink" x="0px" y="0px"
	 viewBox="0 0 2419.1 149.6" style="enable-background:new 0 0 2419.1 149.6;" xml:space="preserve">
<style type="text/css">
	.st0{fill:#EB6A39;}
	.st1{fill:#4A4A4A;}
</style>
<g id="Ebene_2">
</g>
<g id="Ebene_3">
	<g>
		<path class="st0" d="M0,3.9h54.6c9.7,0,18.7,1.9,27.2,5.8c8.5,3.9,15.9,9.1,22.2,15.5c6.3,6.5,11.3,14,15,22.6
			c3.6,8.6,5.5,17.6,5.5,27c0,9.3-1.8,18.2-5.4,26.8c-3.6,8.6-8.5,16.1-14.9,22.7c-6.3,6.5-13.7,11.7-22.2,15.6
			c-8.5,3.9-17.6,5.8-27.4,5.8H0V3.9z M36.9,114.5h8.5c6.4,0,12.1-1,17.1-3c5-2,9.3-4.8,12.7-8.3c3.4-3.5,6.1-7.7,7.9-12.5
			c1.8-4.8,2.7-10.1,2.7-15.9c0-5.6-0.9-10.9-2.8-15.8s-4.5-9.1-8-12.6c-3.5-3.5-7.7-6.3-12.7-8.3c-5-2-10.7-3-16.9-3h-8.5V114.5z"
			/>
		<path class="st0" d="M278.9,3.9v141.8H242V3.9H278.9z"/>
		<path class="st0" d="M480.7,40.2c-4-3.3-8-5.7-12-7.2c-4-1.6-7.9-2.3-11.7-2.3c-4.8,0-8.7,1.1-11.7,3.4c-3,2.3-4.5,5.2-4.5,8.8
			c0,2.5,0.8,4.6,2.3,6.2c1.5,1.6,3.5,3,5.9,4.2c2.4,1.2,5.2,2.2,8.3,3.1c3.1,0.9,6.1,1.8,9.1,2.8c12,4,20.9,9.4,26.4,16.1
			c5.6,6.7,8.4,15.4,8.4,26.2c0,7.3-1.2,13.8-3.7,19.7c-2.4,5.9-6,10.9-10.7,15.1c-4.7,4.2-10.5,7.5-17.3,9.8
			c-6.8,2.3-14.6,3.5-23.2,3.5c-17.9,0-34.6-5.3-49.9-16l15.8-29.7c5.5,4.9,11,8.5,16.4,10.9c5.4,2.4,10.7,3.6,16,3.6
			c6,0,10.5-1.4,13.5-4.1c2.9-2.8,4.4-5.9,4.4-9.4c0-2.1-0.4-4-1.1-5.5c-0.8-1.6-2-3-3.8-4.3c-1.8-1.3-4-2.5-6.9-3.7
			c-2.8-1.1-6.2-2.4-10.3-3.8c-4.8-1.5-9.4-3.2-14-5c-4.6-1.8-8.7-4.2-12.2-7.2c-3.6-3-6.5-6.8-8.7-11.4c-2.2-4.6-3.3-10.4-3.3-17.4
			c0-7,1.2-13.4,3.5-19.1c2.3-5.7,5.6-10.6,9.8-14.7c4.2-4.1,9.3-7.2,15.4-9.5C437,1.1,443.8,0,451.3,0c7,0,14.4,1,22,2.9
			c7.7,1.9,15,4.8,22,8.6L480.7,40.2z"/>
		<path class="st0" d="M655.4,58.7h53.3V3.9h36.9v141.8h-36.9V87.2h-53.3v58.5h-36.9V3.9h36.9V58.7z"/>
	</g>
	<g>
		<path class="st1" d="M884.6,141.6V10c0-2.2,0.5-3.7,1.4-4.7c0.9-0.9,2.5-1.4,4.7-1.4h41.1c11.9,0,22.4,2.8,31.5,8.5
			S977,28.5,977,43.6c0,11.2-2.6,19.9-7.9,26.1c-5.3,6.2-11.1,10.4-17.6,12.5c-6.5,2.1-12.4,3.1-17.6,3.1h-31.4v56.3
			c0,3-2.7,4.5-8.1,4.5h-1.6C887.3,146.1,884.6,144.6,884.6,141.6z M934,70c5.8,0,11.3-2,16.6-5.9c5.3-3.9,7.9-10.7,7.9-20.5
			c0-9-2.7-15.4-8.1-18.9c-5.4-3.6-11.8-5.4-19.2-5.4h-28.8V70H934z"/>
		<path class="st1" d="M1027.8,141.6V8c0-3,2.7-4.5,8.1-4.5h1.6c5.4,0,8.1,1.5,8.1,4.5v57.3h73.3V8c0-3,2.7-4.5,8.1-4.5h1.6
			c5.4,0,8.1,1.5,8.1,4.5v133.7c0,3-2.7,4.5-8.1,4.5h-1.6c-5.4,0-8.1-1.5-8.1-4.5v-61h-73.3v61c0,3-2.7,4.5-8.1,4.5h-1.6
			C1030.5,146.1,1027.8,144.6,1027.8,141.6z"/>
		<path class="st1" d="M1209.4,128.4c-10.7-12.4-16-30.3-16-54c0-23.6,5.3-41.5,15.9-53.6c10.6-12.1,26.1-18.1,46.5-18.1
			c20.4,0,35.9,6,46.6,18.1c10.7,12.1,16,29.9,16,53.6c0,23.6-5.3,41.6-16,54c-10.7,12.4-26.2,18.5-46.6,18.5
			C1235.5,146.9,1220.1,140.7,1209.4,128.4z M1288.6,116.9c7.6-9.7,11.3-23.9,11.3-42.5c0-18.5-3.8-32.5-11.3-42
			c-7.6-9.5-18.5-14.3-32.8-14.3c-14.3,0-25.2,4.8-32.7,14.3c-7.5,9.5-11.2,23.5-11.2,42c0,18.6,3.7,32.8,11.2,42.5
			c7.5,9.7,18.4,14.6,32.7,14.6C1270.1,131.5,1281,126.7,1288.6,116.9z"/>
		<path class="st1" d="M1402.2,141.6V19.3h-38.9c-1.4,0-2.4-0.5-3-1.4c-0.7-0.9-1-2.5-1-4.7V10c0-2.2,0.3-3.7,1-4.7
			c0.7-0.9,1.7-1.4,3-1.4h95c1.5,0,2.5,0.5,3.1,1.4c0.6,0.9,0.9,2.5,0.9,4.7v3.2c0,2.2-0.3,3.7-0.9,4.7c-0.6,0.9-1.7,1.4-3.1,1.4
			H1420v122.3c0,3-2.7,4.5-8.1,4.5h-1.6C1404.9,146.1,1402.2,144.6,1402.2,141.6z"/>
		<path class="st1" d="M1519.2,128.4c-10.7-12.4-16-30.3-16-54c0-23.6,5.3-41.5,15.9-53.6c10.6-12.1,26.1-18.1,46.5-18.1
			c20.4,0,35.9,6,46.6,18.1c10.7,12.1,16,29.9,16,53.6c0,23.6-5.3,41.6-16,54c-10.7,12.4-26.2,18.5-46.6,18.5
			C1545.4,146.9,1529.9,140.7,1519.2,128.4z M1598.4,116.9c7.6-9.7,11.3-23.9,11.3-42.5c0-18.5-3.8-32.5-11.3-42
			c-7.6-9.5-18.5-14.3-32.8-14.3c-14.3,0-25.2,4.8-32.7,14.3c-7.5,9.5-11.2,23.5-11.2,42c0,18.6,3.7,32.8,11.2,42.5
			c7.5,9.7,18.4,14.6,32.7,14.6C1579.9,131.5,1590.9,126.7,1598.4,116.9z"/>
		<path class="st1" d="M1692,144.1c-6.9-1.9-12.1-4.2-15.6-6.9c-2.6-1.9-3.8-3.6-3.8-5.1c0-1.6,0.9-3.8,2.7-6.7
			c1.8-2.8,3.3-4.3,4.4-4.3c0.5,0,2,0.7,4.3,2c4.2,2.3,8.7,4.3,13.5,5.9c4.8,1.6,10.5,2.4,17.1,2.4c7.8,0,14.2-2.2,19.1-6.6
			c4.9-4.4,7.4-10.2,7.4-17.3c0-5-1.4-9.1-4-12.5c-2.7-3.3-6-5.9-9.8-7.9c-3.8-2-9.4-4.4-16.7-7.2c-7.8-3.1-14-5.9-18.6-8.5
			c-4.6-2.6-8.5-6.4-11.7-11.4c-3.2-5.1-4.9-11.7-4.9-19.9c0-7.3,1.9-13.8,5.6-19.4c3.7-5.7,9-10.1,15.8-13.3
			c6.8-3.2,14.7-4.8,23.6-4.8c4.6,0,9.7,0.6,15.4,1.9c5.7,1.3,10.1,3,13.2,5.2c2.7,1.6,4,3.4,4,5.3c0,1.5-0.8,3.6-2.5,6.5
			c-1.7,2.8-3,4.3-3.9,4.3c-0.7,0-1.7-0.3-2.9-1c-1.3-0.7-2.1-1.1-2.5-1.4c-6.8-3.5-13.8-5.3-21.1-5.3c-7.8,0-14.1,2-18.9,6.1
			c-4.8,4-7.2,9.7-7.2,16.8c0,4.6,1.2,8.3,3.5,11.1c2.4,2.8,5.1,5,8.1,6.4c3,1.4,8.3,3.6,15.9,6.6c8.1,3.1,14.7,6.1,19.8,9
			c5.1,2.9,9.5,7.1,13.1,12.6c3.6,5.5,5.4,12.5,5.4,21c0,12.2-4,21.7-12.2,28.8c-8.1,7-19,10.5-32.8,10.5
			C1706.3,146.9,1698.9,146,1692,144.1z"/>
		<path class="st1" d="M1811.2,141.6V8c0-3,2.7-4.5,8.1-4.5h1.6c5.4,0,8.1,1.5,8.1,4.5v57.3h73.3V8c0-3,2.7-4.5,8.1-4.5h1.6
			c5.4,0,8.1,1.5,8.1,4.5v133.7c0,3-2.7,4.5-8.1,4.5h-1.6c-5.4,0-8.1-1.5-8.1-4.5v-61h-73.3v61c0,3-2.7,4.5-8.1,4.5h-1.6
			C1813.9,146.1,1811.2,144.6,1811.2,141.6z"/>
		<path class="st1" d="M1992.9,128.4c-10.7-12.4-16-30.3-16-54c0-23.6,5.3-41.5,15.9-53.6c10.6-12.1,26.1-18.1,46.5-18.1
			c20.4,0,35.9,6,46.6,18.1c10.7,12.1,16,29.9,16,53.6c0,23.6-5.3,41.6-16,54c-10.7,12.4-26.2,18.5-46.6,18.5
			C2019,146.9,2003.5,140.7,1992.9,128.4z M2072.1,116.9c7.6-9.7,11.3-23.9,11.3-42.5c0-18.5-3.8-32.5-11.3-42
			c-7.6-9.5-18.5-14.3-32.8-14.3c-14.3,0-25.2,4.8-32.7,14.3c-7.5,9.5-11.2,23.5-11.2,42c0,18.6,3.7,32.8,11.2,42.5
			c7.5,9.7,18.4,14.6,32.7,14.6C2053.6,131.5,2064.5,126.7,2072.1,116.9z"/>
		<path class="st1" d="M2166.2,128.4c-10.7-12.4-16-30.3-16-54c0-23.6,5.3-41.5,15.9-53.6c10.6-12.1,26.1-18.1,46.5-18.1
			c20.4,0,35.9,6,46.6,18.1c10.7,12.1,16,29.9,16,53.6c0,23.6-5.3,41.6-16,54c-10.7,12.4-26.2,18.5-46.6,18.5
			C2192.3,146.9,2176.9,140.7,2166.2,128.4z M2245.4,116.9c7.6-9.7,11.3-23.9,11.3-42.5c0-18.5-3.8-32.5-11.3-42
			c-7.6-9.5-18.5-14.3-32.8-14.3c-14.3,0-25.2,4.8-32.7,14.3c-7.5,9.5-11.2,23.5-11.2,42c0,18.6,3.7,32.8,11.2,42.5
			c7.5,9.7,18.4,14.6,32.7,14.6C2226.9,131.5,2237.8,126.7,2245.4,116.9z"/>
		<path class="st1" d="M2359,141.6V19.3h-38.9c-1.4,0-2.4-0.5-3-1.4c-0.7-0.9-1-2.5-1-4.7V10c0-2.2,0.3-3.7,1-4.7
			c0.7-0.9,1.7-1.4,3-1.4h95c1.5,0,2.5,0.5,3.1,1.4c0.6,0.9,0.9,2.5,0.9,4.7v3.2c0,2.2-0.3,3.7-0.9,4.7c-0.6,0.9-1.7,1.4-3.1,1.4
			h-38.3v122.3c0,3-2.7,4.5-8.1,4.5h-1.6C2361.7,146.1,2359,144.6,2359,141.6z"/>
	</g>
</g>
</svg>
