<svg xmlns="http://www.w3.org/2000/svg" width="258" height="16" viewBox="0 0 258 16">
    <g fill="none" fill-rule="evenodd">
        <path fill="#EB6A38" d="M48.397 0c.75 0 1.544.107 2.359.31.826.202 1.609.511 2.36.917L51.55 4.288c-.43-.352-.858-.608-1.287-.768-.43-.17-.847-.245-1.255-.245-.515 0-.933.117-1.255.362-.321.246-.482.555-.482.939 0 .267.086.49.246.661.161.171.376.32.633.448.258.128.558.235.89.331.333.096.654.192.976.299 1.287.426 2.241 1.002 2.831 1.717.6.715.901 1.643.901 2.795 0 .778-.129 1.472-.397 2.101-.257.63-.643 1.163-1.147 1.61-.504.449-1.126.8-1.855 1.046-.73.245-1.566.373-2.488.373-1.92 0-3.71-.565-5.352-1.706l1.695-3.168c.59.522 1.18.906 1.758 1.162.58.256 1.148.384 1.716.384.644 0 1.126-.149 1.448-.437.311-.299.472-.63.472-1.003 0-.224-.043-.426-.118-.586-.086-.171-.215-.32-.408-.459-.193-.139-.429-.267-.74-.395-.3-.117-.664-.256-1.104-.405-.515-.16-1.008-.341-1.501-.533-.494-.192-.933-.448-1.309-.768-.386-.32-.697-.726-.933-1.216-.236-.491-.354-1.11-.354-1.856 0-.747.13-1.43.376-2.038.246-.608.6-1.13 1.05-1.568.451-.437.998-.768 1.652-1.013C46.863.117 47.592 0 48.397 0zM5.855.416c1.04 0 2.006.203 2.917.619.912.416 1.705.97 2.38 1.653.676.693 1.213 1.493 1.61 2.41.385.918.59 1.878.59 2.88 0 .993-.194 1.942-.58 2.86-.386.917-.911 1.717-1.598 2.42-.675.694-1.469 1.249-2.38 1.665-.912.416-1.888.618-2.939.618H0V.416h5.855zm24.054 0v15.125h-3.957V.416h3.957zm40.375 0v5.845H76V.416h3.957v15.125H76v-6.24h-5.716v6.24h-3.957V.416h3.957zM4.87 3.744h-.912v8.47h.912c.686 0 1.297-.107 1.833-.32.537-.214.998-.513 1.362-.886.365-.373.654-.821.848-1.333.193-.512.29-1.078.29-1.696 0-.598-.097-1.163-.301-1.686-.204-.522-.483-.97-.858-1.344-.375-.373-.826-.672-1.362-.885-.536-.213-1.147-.32-1.812-.32z"/>
        <path fill="#4A4A4A" d="M183.303.066c.491 0 1.036.066 1.644.21.609.143 1.079.33 1.41.574.288.176.427.375.427.584 0 .166-.086.398-.267.718-.182.309-.32.474-.416.474-.075 0-.182-.033-.31-.11-.139-.077-.224-.122-.267-.155-.726-.386-1.473-.584-2.253-.584-.833 0-1.505.22-2.018.673-.512.441-.769 1.07-.769 1.853 0 .508.128.916.374 1.225.256.31.545.552.865.706.32.155.886.398 1.698.729.864.342 1.57.673 2.114.993.544.32 1.014.783 1.398 1.39.385.607.577 1.38.577 2.317 0 1.347-.427 2.395-1.303 3.178-.865.773-2.028 1.159-3.502 1.159-.907-.011-1.697-.11-2.434-.32-.737-.21-1.292-.463-1.666-.761-.277-.21-.406-.398-.406-.563 0-.177.097-.42.289-.74.192-.308.352-.474.47-.474.053 0 .213.077.459.22.448.255.929.475 1.441.652.513.176 1.121.265 1.826.265.833 0 1.516-.243 2.04-.729.522-.485.79-1.125.79-1.909 0-.551-.15-1.004-.428-1.379-.288-.364-.64-.651-1.046-.872-.406-.22-1.004-.485-1.783-.794-.833-.342-1.495-.651-1.986-.938-.491-.287-.908-.706-1.25-1.258-.341-.563-.523-1.291-.523-2.196 0-.805.203-1.523.598-2.14.395-.63.961-1.115 1.687-1.468.726-.353 1.57-.53 2.52-.53zm-49.606.011c2.179 0 3.833.662 4.976 1.997 1.142 1.336 1.708 3.3 1.708 5.915 0 2.604-.566 4.59-1.708 5.959-1.143 1.368-2.797 2.041-4.976 2.041-2.167 0-3.811-.684-4.954-2.041-1.142-1.369-1.708-3.344-1.708-5.959 0-2.604.566-4.58 1.698-5.915C129.864.74 131.519.077 133.697.077zm33.078 0c2.178 0 3.833.662 4.976 1.997 1.142 1.336 1.708 3.3 1.708 5.915 0 2.604-.566 4.59-1.708 5.959-1.143 1.368-2.798 2.041-4.976 2.041-2.157 0-3.812-.684-4.954-2.041-1.143-1.369-1.709-3.344-1.709-5.959 0-2.604.566-4.58 1.698-5.915C162.942.74 164.597.077 166.775.077zm50.577 0c2.178 0 3.833.662 4.976 1.997 1.142 1.336 1.708 3.3 1.708 5.915 0 2.604-.566 4.59-1.708 5.959-1.143 1.368-2.798 2.041-4.976 2.041-2.167 0-3.822-.684-4.954-2.041-1.142-1.369-1.708-3.344-1.708-5.959 0-2.604.566-4.58 1.698-5.915C213.519.74 215.174.077 217.352.077zm18.504 0c2.178 0 3.833.662 4.975 1.997 1.143 1.336 1.709 3.3 1.709 5.915 0 2.604-.566 4.59-1.709 5.959-1.142 1.368-2.797 2.041-4.975 2.041-2.168 0-3.812-.684-4.954-2.041-1.143-1.369-1.709-3.344-1.709-5.959 0-2.604.566-4.58 1.698-5.915C232.023.74 233.678.077 235.856.077zM110.389.166c.577 0 .865.165.865.496v6.323h7.826V.662c0-.331.289-.496.865-.496h.171c.577 0 .865.165.865.496v14.753c0 .331-.288.497-.865.497h-.17c-.577 0-.866-.166-.866-.497v-6.73h-7.826v6.73c0 .331-.288.497-.865.497h-.17c-.577-.011-.865-.177-.865-.508V.662c0-.331.288-.496.864-.496h.171zm83.645 0c.576 0 .864.165.864.496v6.323h7.827V.662c0-.331.288-.496.865-.496h.17c.577 0 .865.165.865.496v14.753c0 .331-.288.497-.865.497h-.17c-.577 0-.865-.166-.865-.497v-6.73h-7.827v6.73c0 .331-.288.497-.864.497h-.171c-.577-.011-.865-.177-.865-.508V.662c0-.331.288-.496.865-.496h.17zM99.104.21c1.27 0 2.391.309 3.363.938s1.463 1.776 1.463 3.442c0 1.236-.278 2.196-.844 2.88-.566.684-1.185 1.148-1.879 1.38-.694.231-1.324.342-1.88.342h-3.352v6.212c0 .331-.288.497-.865.497h-.17c-.588 0-.876-.166-.876-.497V.883c0-.243.053-.409.15-.519.096-.1.266-.154.501-.154h4.389zm56.214 0c.16 0 .267.055.331.154.065.1.097.276.097.519v.353c0 .243-.032.408-.097.518-.064.1-.181.155-.33.155h-4.09v13.495c0 .331-.288.497-.865.497h-.17c-.577 0-.865-.166-.865-.497V1.91h-4.154c-.15 0-.256-.055-.32-.155-.075-.099-.107-.275-.107-.518V.883c0-.243.032-.409.107-.519.075-.1.181-.154.32-.154h10.143zm102.159 0c.16 0 .267.055.33.154.065.1.097.276.097.519v.353c0 .243-.032.408-.096.518-.064.1-.182.155-.331.155h-4.09v13.495c0 .331-.288.497-.864.497h-.171c-.577 0-.865-.166-.865-.497V1.91h-4.153c-.15 0-.257-.055-.32-.155-.075-.099-.107-.275-.107-.518V.883c0-.243.032-.409.106-.519.075-.1.182-.154.32-.154h10.144zm-123.78 1.567c-1.526 0-2.69.53-3.491 1.577-.8 1.049-1.196 2.594-1.196 4.635 0 2.052.395 3.62 1.196 4.69.8 1.07 1.965 1.61 3.491 1.61 1.527 0 2.691-.529 3.502-1.61.812-1.07 1.207-2.638 1.207-4.69 0-2.041-.406-3.586-1.207-4.635-.811-1.048-1.975-1.577-3.502-1.577zm33.078 0c-1.527 0-2.69.53-3.491 1.577-.801 1.049-1.196 2.594-1.196 4.635 0 2.052.395 3.62 1.196 4.69.8 1.07 1.964 1.61 3.491 1.61 1.527 0 2.701-.529 3.502-1.61.812-1.07 1.207-2.638 1.207-4.69 0-2.041-.406-3.586-1.207-4.635-.811-1.048-1.975-1.577-3.502-1.577zm50.577 0c-1.526 0-2.69.53-3.491 1.577-.8 1.049-1.196 2.594-1.196 4.635 0 2.052.395 3.62 1.196 4.69.8 1.07 1.965 1.61 3.491 1.61 1.527 0 2.691-.529 3.502-1.61.812-1.07 1.207-2.638 1.207-4.69 0-2.041-.406-3.586-1.207-4.635-.811-1.048-1.975-1.577-3.502-1.577zm18.504 0c-1.527 0-2.69.53-3.492 1.577-.8 1.049-1.196 2.594-1.196 4.635 0 2.052.396 3.62 1.196 4.69.801 1.07 1.965 1.61 3.492 1.61s2.69-.529 3.502-1.61c.811-1.07 1.206-2.638 1.206-4.69 0-2.041-.405-3.586-1.206-4.635-.812-1.048-1.975-1.577-3.502-1.577zM99.04 1.909h-3.075v5.594h3.374c.619 0 1.206-.22 1.772-.65.566-.43.843-1.181.843-2.263 0-.993-.288-1.699-.864-2.085-.577-.397-1.26-.596-2.05-.596z"/>
    </g>
</svg>
