<svg xmlns="http://www.w3.org/2000/svg" width="177" height="11" viewBox="0 0 177 11">
    <g fill="none" fill-rule="evenodd">
        <path fill="#EB6A38" d="M33.202 0c.515 0 1.06.073 1.619.213.566.139 1.104.352 1.619.63l-1.075 2.105c-.294-.242-.588-.418-.882-.528-.295-.117-.582-.169-.861-.169-.353 0-.64.081-.861.25-.22.168-.331.381-.331.645 0 .183.059.337.17.455.11.117.257.22.433.308.177.088.383.161.61.227.229.066.45.132.67.205.883.294 1.538.69 1.943 1.181.412.491.618 1.13.618 1.921 0 .536-.089 1.012-.273 1.445-.176.433-.441.8-.787 1.107-.346.308-.772.55-1.273.719-.5.169-1.074.257-1.706.257-1.317 0-2.546-.389-3.672-1.174l1.163-2.178c.404.36.81.624 1.206.8.398.176.788.264 1.178.264.44 0 .772-.103.993-.301.213-.205.323-.433.323-.69 0-.153-.029-.293-.08-.403-.06-.117-.148-.22-.28-.315-.132-.095-.294-.183-.508-.271-.206-.081-.456-.176-.757-.279-.354-.11-.692-.235-1.03-.367-.339-.132-.64-.308-.898-.528-.265-.22-.478-.498-.64-.836-.162-.337-.243-.762-.243-1.276 0-.513.088-.982.258-1.4.169-.418.412-.778.72-1.078.31-.301.685-.528 1.134-.697.448-.161.949-.242 1.5-.242zM4.017.286c.714 0 1.376.14 2.001.425.625.286 1.17.668 1.633 1.137.464.477.832 1.027 1.104 1.657.265.631.405 1.291.405 1.98 0 .682-.133 1.335-.398 1.966-.265.63-.625 1.18-1.096 1.664-.463.477-1.008.858-1.633 1.144-.626.286-1.295.426-2.016.426H0V.286h4.017zm16.502 0v10.399h-2.715V.286h2.715zm27.7 0v4.019h3.92V.286h2.715v10.399H52.14v-4.29h-3.922v4.29h-2.715V.286h2.715zM3.34 2.574h-.625v5.823h.625c.471 0 .89-.074 1.258-.22.368-.147.684-.352.935-.609.25-.257.448-.565.58-.917.133-.352.2-.74.2-1.166 0-.41-.067-.799-.207-1.158-.14-.36-.33-.668-.588-.924-.258-.257-.567-.462-.935-.609-.367-.147-.787-.22-1.243-.22z"/>
        <path fill="#4A4A4A" d="M125.754.046c.337 0 .711.045 1.129.144.417.098.74.227.966.394.198.122.293.258.293.402 0 .114-.058.273-.183.493-.124.213-.22.327-.285.327-.052 0-.125-.023-.213-.076-.095-.053-.154-.084-.183-.107-.498-.265-1.01-.402-1.546-.402-.57 0-1.032.152-1.384.463-.352.304-.527.736-.527 1.275 0 .349.088.63.256.842.176.212.374.379.593.485.22.106.608.273 1.165.5.593.236 1.077.464 1.45.684.374.22.696.538.96.956.264.417.396.948.396 1.593 0 .925-.293 1.646-.894 2.184-.593.531-1.392.797-2.403.797-.622-.008-1.164-.076-1.67-.22-.505-.144-.886-.319-1.143-.523-.19-.145-.278-.274-.278-.387 0-.122.066-.289.198-.509.132-.212.242-.326.322-.326.037 0 .147.053.315.152.308.174.637.326.989.447.352.122.77.183 1.253.183.571 0 1.04-.167 1.399-.501.359-.334.542-.774.542-1.313 0-.379-.103-.69-.293-.948-.198-.25-.44-.447-.718-.6-.278-.15-.689-.333-1.223-.545-.572-.236-1.026-.448-1.363-.645-.337-.197-.622-.486-.857-.865-.234-.387-.359-.888-.359-1.51 0-.553.14-1.047.41-1.471.271-.433.66-.767 1.158-1.01.498-.242 1.077-.363 1.728-.363zM91.723.053c1.494 0 2.63.455 3.413 1.373.784.918 1.172 2.268 1.172 4.066 0 1.79-.388 3.156-1.172 4.097-.784.94-1.92 1.403-3.413 1.403-1.487 0-2.615-.47-3.4-1.403-.783-.94-1.171-2.299-1.171-4.097 0-1.79.388-3.148 1.165-4.066.776-.918 1.911-1.373 3.406-1.373zm22.692 0c1.495 0 2.63.455 3.414 1.373.784.918 1.172 2.268 1.172 4.066 0 1.79-.388 3.156-1.172 4.097-.784.94-1.92 1.403-3.414 1.403-1.48 0-2.615-.47-3.398-1.403-.784-.94-1.172-2.299-1.172-4.097 0-1.79.388-3.148 1.164-4.066.777-.918 1.912-1.373 3.406-1.373zm34.699 0c1.494 0 2.63.455 3.413 1.373.784.918 1.172 2.268 1.172 4.066 0 1.79-.388 3.156-1.172 4.097-.784.94-1.919 1.403-3.413 1.403-1.487 0-2.623-.47-3.399-1.403-.784-.94-1.172-2.299-1.172-4.097 0-1.79.388-3.148 1.165-4.066.776-.918 1.912-1.373 3.406-1.373zm12.694 0c1.494 0 2.63.455 3.413 1.373.784.918 1.172 2.268 1.172 4.066 0 1.79-.388 3.156-1.172 4.097-.783.94-1.919 1.403-3.413 1.403-1.487 0-2.615-.47-3.399-1.403-.784-.94-1.172-2.299-1.172-4.097 0-1.79.388-3.148 1.165-4.066.776-.918 1.912-1.373 3.406-1.373zm-86.076.06c.396 0 .594.115.594.342v4.347h5.369V.455c0-.227.198-.341.593-.341h.117c.396 0 .594.114.594.341v10.143c0 .228-.198.341-.594.341h-.117c-.395 0-.593-.113-.593-.341V5.97h-5.37v4.628c0 .228-.197.341-.593.341h-.117c-.396-.007-.593-.121-.593-.349V.455c0-.227.197-.341.593-.341h.117zm57.384 0c.396 0 .593.115.593.342v4.347h5.37V.455c0-.227.197-.341.593-.341h.117c.396 0 .593.114.593.341v10.143c0 .228-.197.341-.593.341h-.117c-.396 0-.593-.113-.593-.341V5.97h-5.37v4.628c0 .228-.197.341-.593.341H133c-.396-.007-.593-.121-.593-.349V.455c0-.227.197-.341.593-.341h.117zM67.99.145c.871 0 1.64.213 2.307.645.667.432 1.004 1.221 1.004 2.367 0 .85-.19 1.51-.58 1.98-.387.47-.812.789-1.288.948-.476.16-.909.235-1.29.235h-2.3v4.271c0 .228-.197.342-.593.342h-.117c-.403 0-.6-.114-.6-.342V.607c0-.167.036-.28.102-.357.066-.068.183-.106.344-.106h3.01zm38.566 0c.11 0 .183.038.227.106.044.069.066.19.066.357V.85c0 .167-.022.28-.066.356-.044.068-.125.106-.227.106h-2.806v9.278c0 .228-.198.342-.593.342h-.117c-.396 0-.594-.114-.594-.342V1.312h-2.849c-.103 0-.176-.038-.22-.106-.051-.068-.073-.19-.073-.356V.607c0-.167.022-.28.073-.357.052-.068.125-.106.22-.106h6.959zm70.085 0c.11 0 .183.038.227.106.044.069.066.19.066.357V.85c0 .167-.022.28-.066.356-.044.068-.124.106-.227.106h-2.805v9.278c0 .228-.198.342-.594.342h-.117c-.395 0-.593-.114-.593-.342V1.312h-2.85c-.102 0-.175-.038-.22-.106-.05-.068-.073-.19-.073-.356V.607c0-.167.022-.28.074-.357.05-.068.124-.106.22-.106h6.958zM91.723 1.221c-1.048 0-1.846.365-2.396 1.085-.549.72-.82 1.783-.82 3.186 0 1.411.271 2.489.82 3.225.55.735 1.348 1.107 2.396 1.107 1.047 0 1.846-.364 2.402-1.107.557-.736.828-1.814.828-3.225 0-1.403-.278-2.465-.828-3.186-.556-.72-1.355-1.085-2.402-1.085zm22.692 0c-1.047 0-1.845.365-2.395 1.085s-.82 1.783-.82 3.186c0 1.411.27 2.489.82 3.225.55.735 1.348 1.107 2.395 1.107 1.048 0 1.854-.364 2.403-1.107.557-.736.828-1.814.828-3.225 0-1.403-.279-2.465-.828-3.186-.557-.72-1.355-1.085-2.403-1.085zm34.699 0c-1.048 0-1.846.365-2.395 1.085-.55.72-.82 1.783-.82 3.186 0 1.411.27 2.489.82 3.225.549.735 1.347 1.107 2.395 1.107 1.047 0 1.846-.364 2.402-1.107.557-.736.828-1.814.828-3.225 0-1.403-.278-2.465-.828-3.186-.556-.72-1.355-1.085-2.402-1.085zm12.694 0c-1.047 0-1.846.365-2.395 1.085-.55.72-.82 1.783-.82 3.186 0 1.411.27 2.489.82 3.225.55.735 1.348 1.107 2.395 1.107s1.846-.364 2.403-1.107c.556-.736.827-1.814.827-3.225 0-1.403-.278-2.465-.827-3.186-.557-.72-1.356-1.085-2.403-1.085zm-93.862.091h-2.11V5.16h2.315c.425 0 .828-.152 1.216-.448.388-.296.578-.812.578-1.555 0-.683-.197-1.168-.593-1.434-.395-.273-.864-.41-1.406-.41z"/>
    </g>
</svg>
