<svg id="Ebene_1" data-name="Ebene 1" xmlns="http://www.w3.org/2000/svg" xmlns:xlink="http://www.w3.org/1999/xlink" viewBox="0 0 163 163"><defs><style>.cls-1{fill:url(#Unbenannter_Verlauf_2);}</style><linearGradient id="Unbenannter_Verlauf_2" x1="10.39" y1="133.99" x2="155.8" y2="30.34" gradientUnits="userSpaceOnUse"><stop offset="0" stop-color="#ac191b"/><stop offset="0.12" stop-color="#b5241f"/><stop offset="0.33" stop-color="#cd4229"/><stop offset="0.56" stop-color="#ec6937"/><stop offset="0.74" stop-color="#f28e52"/><stop offset="0.98" stop-color="#fbc57a"/></linearGradient></defs><title>photodirect-favicon</title><path class="cls-1" d="M81.93,6.91A76.09,76.09,0,1,0,158,83,76.18,76.18,0,0,0,81.93,6.91ZM21,83a60.87,60.87,0,0,1,83.14-56.7v26L81.93,39.49,44.52,61.08V89.77h0V131A60.84,60.84,0,0,1,21,83Zm83.14-13.16V96.21L81.93,109,59.7,96.21V69.84L81.93,57ZM81.93,143.92A60.58,60.58,0,0,1,59.7,139.7v-26l22.23,12.84,37.4-21.6V35a60.89,60.89,0,0,1-37.4,109Z"/></svg>